<?xml version="1.0" standalone="no"?>
<!DOCTYPE svg PUBLIC "-//W3C//DTD SVG 20010904//EN"
 "http://www.w3.org/TR/2001/REC-SVG-20010904/DTD/svg10.dtd">
<svg version="1.0" xmlns="http://www.w3.org/2000/svg"
 width="310.000000pt" height="310.000000pt" viewBox="0 0 310.000000 310.000000"
 preserveAspectRatio="xMidYMid meet">

<g transform="translate(0.000000,310.000000) scale(0.100000,-0.100000)"
fill="#000000" stroke="none">
<path d="M1660 3081 c0 -11 -261 -181 -277 -181 -3 0 2 12 12 26 9 14 15 28
12 30 -2 3 -12 -8 -22 -23 -10 -15 -45 -53 -77 -84 -83 -80 -79 -92 22 -63
117 33 441 49 520 24 l45 -14 -40 -6 c-22 -3 -45 -9 -51 -13 -7 -4 -43 0 -81
9 -59 13 -79 13 -147 2 l-80 -13 132 0 c74 0 135 -4 141 -10 7 -7 -22 -9 -87
-8 -64 1 -82 -1 -52 -5 l45 -7 -58 -18 c-73 -23 -70 -31 3 -11 61 16 232 30
190 15 -25 -9 -25 -9 5 -10 39 -2 75 -11 75 -21 0 -4 -16 -15 -35 -25 -53 -29
-35 -28 30 1 53 23 155 44 155 32 0 -3 -40 -22 -90 -42 -121 -50 -123 -63 -4
-20 90 32 160 42 147 20 -4 -5 1 -7 10 -3 9 3 19 1 23 -5 5 -7 2 -8 -7 -3 -8
4 -6 -1 4 -11 14 -15 19 -16 26 -6 6 10 10 7 15 -13 7 -26 8 -27 26 -10 22 20
27 39 8 33 -6 -2 -25 11 -41 29 -16 18 -34 33 -41 33 -7 0 -21 7 -32 15 -18
14 -16 14 16 8 37 -6 92 -32 125 -57 16 -12 17 -17 7 -24 -9 -6 5 -7 35 -5 51
5 157 -20 169 -39 5 -8 1 -9 -12 -4 -10 4 -47 10 -81 13 -54 5 -69 2 -118 -21
-30 -15 -55 -32 -55 -37 0 -14 12 -11 40 11 34 27 84 26 111 -2 12 -13 32 -45
46 -73 20 -41 24 -44 19 -19 -4 28 -3 31 19 26 14 -2 30 -10 36 -18 6 -8 18
-14 25 -14 8 0 14 -7 14 -15 0 -8 8 -15 17 -15 9 0 30 -12 47 -27 l30 -28 -33
43 c-18 23 -36 40 -39 38 -4 -2 -7 6 -7 19 l0 23 36 -21 c20 -12 52 -40 70
-62 19 -22 60 -66 92 -97 32 -32 55 -62 52 -68 -3 -5 -2 -10 3 -10 15 0 31
-55 21 -71 -7 -11 -9 -11 -9 -1 0 7 -4 10 -10 7 -5 -3 -10 -1 -10 6 0 7 -2 10
-5 8 -4 -5 23 -117 32 -132 2 -4 9 -5 14 -2 5 4 3 18 -6 35 -17 33 -20 64 -5
55 5 -3 12 -21 16 -40 4 -25 12 -35 24 -35 10 0 27 -10 37 -23 18 -23 24 -27
42 -27 9 0 64 -124 76 -173 4 -15 10 -26 12 -23 9 9 -40 140 -83 226 -60 117
-73 137 -122 198 -40 51 -42 57 -42 122 l0 69 -58 73 c-140 175 -346 340 -536
428 -123 58 -268 106 -361 120 -44 6 -88 13 -97 15 -10 2 -18 0 -18 -4z m287
-173 c-3 -8 -6 -5 -6 6 -1 11 2 17 5 13 3 -3 4 -12 1 -19z m64 -139 c53 -18
61 -32 14 -24 -23 3 -53 2 -68 -4 -40 -16 -103 10 -80 32 10 11 97 8 134 -4z"/>
<path d="M1055 2990 c16 -30 16 -32 -9 -51 -14 -11 -26 -26 -26 -32 0 -7 25
-35 56 -62 l57 -51 -17 -33 c-30 -58 -108 -125 -191 -164 l-79 -38 -42 42
c-34 33 -51 42 -88 46 -42 5 -46 4 -46 -16 0 -24 89 -116 121 -126 11 -4 19
-12 19 -20 0 -17 -27 -45 -44 -45 -10 0 -188 57 -261 84 -19 7 -19 6 -1 -6 10
-7 37 -32 60 -55 26 -25 58 -45 84 -52 23 -7 43 -15 44 -19 10 -48 3 -68 -38
-107 -24 -22 -44 -46 -44 -51 0 -6 -13 -9 -30 -6 -28 4 -62 -11 -100 -44 -28
-25 -95 -83 -125 -108 -16 -14 -33 -26 -37 -26 -5 0 -8 -7 -8 -15 0 -11 5 -12
26 -5 14 6 43 10 65 10 49 0 75 13 108 54 13 17 50 56 80 86 31 31 77 81 103
111 26 30 59 61 73 69 14 7 25 22 25 32 0 34 29 75 67 99 21 13 42 29 46 37 5
7 28 26 50 40 23 15 77 54 120 87 l77 60 -3 65 c-3 52 -13 82 -45 147 -23 45
-46 85 -53 88 -6 4 -3 -7 6 -25z"/>
<path d="M1458 2763 c6 -2 18 -2 25 0 6 3 1 5 -13 5 -14 0 -19 -2 -12 -5z"/>
<path d="M1707 2596 c-48 -29 -61 -43 -22 -23 31 16 74 46 65 46 -3 0 -22 -10
-43 -23z"/>
<path d="M1945 2595 c-46 -23 -159 -114 -143 -115 4 0 22 13 40 29 71 61 185
75 286 35 38 -16 44 -22 58 -71 9 -32 16 -95 17 -151 0 -59 3 -85 7 -67 6 26
8 27 15 11 4 -10 12 -32 16 -50 6 -21 7 -5 4 49 -2 44 -11 103 -20 130 -8 28
-20 63 -25 79 -12 37 -8 42 28 27 26 -11 73 -71 55 -71 -4 0 -3 -4 2 -8 6 -4
24 -33 40 -64 16 -31 31 -56 32 -54 2 2 -2 38 -8 82 -8 50 -15 72 -19 60 -11
-32 -50 41 -44 82 6 38 -8 41 -66 13 l-38 -18 -26 24 c-14 13 -26 30 -26 38 0
41 -109 47 -185 10z"/>
<path d="M380 2576 c0 -2 7 -7 16 -10 8 -3 12 -2 9 4 -6 10 -25 14 -25 6z"/>
<path d="M1605 2537 c-64 -38 -140 -87 -132 -87 4 0 -10 -16 -31 -36 -31 -29
-28 -28 19 8 30 24 85 64 122 87 58 38 75 51 65 51 -2 0 -21 -11 -43 -23z"/>
<path d="M2038 2520 c-2 -6 -13 -12 -26 -15 -20 -3 -82 -41 -82 -50 0 -6 149
60 150 68 0 11 -38 8 -42 -3z"/>
<path d="M2125 2480 c4 -19 11 -53 15 -75 7 -39 8 -39 9 16 1 37 -4 62 -15 75
-15 18 -15 17 -9 -16z"/>
<path d="M2321 2484 c0 -11 3 -14 6 -6 3 7 2 16 -1 19 -3 4 -6 -2 -5 -13z"/>
<path d="M1188 2483 c23 -2 59 -2 80 0 20 2 1 4 -43 4 -44 0 -61 -2 -37 -4z"/>
<path d="M1030 2310 c8 -5 20 -10 25 -10 6 0 3 5 -5 10 -8 5 -19 10 -25 10 -5
0 -3 -5 5 -10z"/>
<path d="M749 2258 c-3 -18 -6 -25 -27 -65 -12 -23 -18 -44 -13 -48 5 -3 12 8
16 24 3 16 17 43 31 62 13 18 24 34 24 34 0 6 -30 0 -31 -7z"/>
<path d="M1208 2243 c7 -3 16 -2 19 1 4 3 -2 6 -13 5 -11 0 -14 -3 -6 -6z"/>
<path d="M830 2205 c0 -5 5 -17 10 -25 5 -8 10 -10 10 -5 0 6 -5 17 -10 25 -5
8 -10 11 -10 5z"/>
<path d="M2191 2194 c0 -11 3 -14 6 -6 3 7 2 16 -1 19 -3 4 -6 -2 -5 -13z"/>
<path d="M2665 2183 c42 -109 68 -226 84 -374 9 -83 8 -111 -9 -205 -11 -60
-31 -142 -44 -181 -14 -40 -23 -73 -20 -73 11 0 57 116 75 188 20 80 24 230
10 328 -8 61 -5 75 16 67 9 -4 14 -2 11 3 -3 5 10 10 29 11 19 1 41 7 48 13
16 13 8 43 -9 33 -6 -3 -3 3 7 14 16 19 16 20 0 20 -23 0 -45 -16 -37 -28 3
-5 -6 -4 -20 3 -23 10 -29 8 -47 -13 l-22 -24 5 27 c3 15 2 25 -2 23 -4 -3
-10 4 -13 15 -3 10 -1 20 4 22 10 3 -56 148 -67 148 -3 0 -3 -8 1 -17z"/>
<path d="M2253 2120 c0 -36 2 -50 4 -32 2 17 2 47 0 65 -2 17 -4 3 -4 -33z"/>
<path d="M2181 2163 c-1 -6 -4 -20 -7 -30 -5 -17 -5 -17 6 0 6 10 9 23 6 30
-3 9 -5 9 -5 0z"/>
<path d="M2511 2154 c0 -11 3 -14 6 -6 3 7 2 16 -1 19 -3 4 -6 -2 -5 -13z"/>
<path d="M2571 2154 c0 -11 3 -14 6 -6 3 7 2 16 -1 19 -3 4 -6 -2 -5 -13z"/>
<path d="M609 2139 c-12 -9 -12 -10 1 -6 8 2 23 0 33 -5 9 -5 17 -6 17 -4 0
13 -37 24 -51 15z"/>
<path d="M833 2130 c13 -9 17 -25 17 -74 0 -50 4 -65 16 -70 14 -5 15 -4 5 8
-7 9 -11 39 -9 76 l3 62 25 -41 c14 -22 29 -41 33 -41 5 0 -5 19 -22 42 -21
29 -40 43 -59 45 -23 3 -24 1 -9 -7z"/>
<path d="M680 2120 c-9 -6 -10 -10 -3 -10 6 0 15 5 18 10 8 12 4 12 -15 0z"/>
<path d="M2582 2105 c0 -16 2 -22 5 -12 2 9 2 23 0 30 -3 6 -5 -1 -5 -18z"/>
<path d="M945 2095 c45 -39 63 -47 71 -33 4 6 3 8 -4 4 -5 -3 -12 -3 -14 2 -1
4 -21 18 -43 30 l-40 22 30 -25z"/>
<path d="M1171 2087 c-27 -44 -71 -144 -70 -160 0 -7 23 32 50 87 50 97 61
139 20 73z"/>
<path d="M1427 2073 c-48 -67 -59 -90 -43 -90 7 0 28 31 48 69 19 37 34 68 32
68 -1 0 -18 -21 -37 -47z"/>
<path d="M2531 2054 c0 -11 3 -14 6 -6 3 7 2 16 -1 19 -3 4 -6 -2 -5 -13z"/>
<path d="M2117 2007 c-15 -29 -48 -76 -73 -105 -56 -63 -43 -70 15 -7 22 24
41 43 41 42 0 -8 -54 -136 -77 -182 -20 -43 -21 -46 -4 -25 11 14 32 48 45 75
24 48 25 49 26 20 1 -30 1 -30 16 9 7 21 17 68 20 105 4 36 11 77 16 90 15 42
3 31 -25 -22z"/>
<path d="M2594 1912 c-2 -115 -6 -162 -22 -217 -26 -88 -21 -97 7 -13 36 111
43 180 31 281 -6 50 -12 92 -13 93 -1 1 -3 -64 -3 -144z"/>
<path d="M1984 2000 c-23 -63 -42 -83 -36 -37 4 30 3 31 -11 12 -8 -10 -13
-25 -10 -31 2 -7 0 -15 -6 -19 -6 -3 -8 -17 -5 -30 3 -12 -2 -38 -11 -56 l-16
-34 25 30 c14 17 26 33 26 37 0 4 5 19 11 35 7 19 13 23 18 15 4 -8 14 14 24
55 9 37 15 69 13 71 -2 1 -12 -20 -22 -48z"/>
<path d="M1090 2020 c-9 -6 -10 -10 -3 -10 6 0 15 5 18 10 8 12 4 12 -15 0z"/>
<path d="M720 1999 c0 -5 9 -9 20 -9 11 0 20 2 20 4 0 2 -9 6 -20 9 -11 3 -20
1 -20 -4z"/>
<path d="M1010 1973 c14 -15 29 -31 33 -34 5 -3 1 -13 -7 -22 -9 -8 -16 -28
-16 -44 1 -26 2 -25 15 12 8 22 15 42 15 44 0 2 7 1 15 -2 35 -14 18 11 -29
41 -51 34 -51 34 -26 5z"/>
<path d="M1896 1946 c5 -13 4 -17 -4 -12 -6 3 -13 2 -16 -3 -3 -5 0 -11 8 -14
18 -7 30 23 16 37 -8 8 -9 6 -4 -8z"/>
<path d="M58 1926 c-24 -23 -60 -256 -41 -256 11 0 125 113 147 146 7 11 25
40 40 66 24 42 25 47 9 46 -10 -1 -45 2 -79 6 -49 6 -64 5 -76 -8z"/>
<path d="M2543 1895 c0 -27 2 -38 4 -22 2 15 2 37 0 50 -2 12 -4 0 -4 -28z"/>
<path d="M1412 1885 c-12 -25 -20 -45 -17 -45 7 0 47 81 43 86 -3 2 -14 -17
-26 -41z"/>
<path d="M2412 1852 c-6 -26 -14 -55 -17 -64 -9 -22 8 -23 29 -2 15 14 16 13
16 -15 0 -18 -10 -65 -22 -106 -20 -67 -25 -75 -48 -76 -18 -1 -20 -3 -7 -6
14 -4 18 -12 14 -29 -2 -13 -3 -24 -1 -24 2 0 16 19 32 43 33 49 47 81 31 71
-7 -4 -9 0 -5 12 12 40 26 151 25 199 -1 40 -3 45 -9 25 -5 -16 -8 -19 -9 -8
-2 36 -18 25 -29 -20z"/>
<path d="M847 1835 c3 -8 9 -12 14 -9 12 7 11 11 -5 17 -10 4 -13 1 -9 -8z"/>
<path d="M1048 1821 c-8 -16 -12 -34 -9 -40 5 -7 12 4 19 26 14 46 11 50 -10
14z"/>
<path d="M2496 1815 c-4 -22 -13 -58 -21 -80 -25 -77 -25 -80 -1 -30 20 40 25
45 25 26 1 -16 4 -22 11 -15 6 6 6 35 1 74 -8 65 -8 65 -15 25z"/>
<path d="M1275 1794 c-30 -73 -65 -221 -70 -294 -4 -74 -1 -68 11 20 5 36 8
41 15 25 5 -15 8 -7 8 27 1 50 22 149 45 216 18 51 12 56 -9 6z"/>
<path d="M1552 1763 c-16 -26 -39 -57 -50 -69 -11 -12 -17 -26 -13 -33 5 -7
16 5 31 31 19 34 25 39 28 24 3 -12 11 0 22 35 10 30 17 55 15 57 -1 2 -16
-19 -33 -45z"/>
<path d="M2303 1770 c-11 -22 -16 -38 -10 -37 10 2 40 67 34 73 -1 2 -12 -15
-24 -36z"/>
<path d="M912 1754 c-7 -14 -8 -23 -2 -19 15 9 32 45 22 45 -5 0 -14 -12 -20
-26z"/>
<path d="M1349 1743 c-15 -41 -39 -135 -38 -153 0 -8 7 8 16 35 8 28 19 52 23
55 7 5 19 90 13 90 -2 0 -8 -12 -14 -27z"/>
<path d="M1040 1753 c0 -5 -20 -36 -45 -68 -25 -32 -43 -60 -41 -63 3 -2 19 6
36 18 17 12 29 24 26 27 -3 3 4 23 15 45 11 22 18 43 15 46 -3 3 -6 1 -6 -5z"/>
<path d="M1855 1739 c-11 -17 1 -21 15 -4 8 9 8 15 2 15 -6 0 -14 -5 -17 -11z"/>
<path d="M2530 1722 c0 -11 -4 -24 -10 -27 -12 -8 -13 -35 -1 -35 10 0 25 69
17 78 -3 3 -6 -4 -6 -16z"/>
<path d="M2259 1703 c-13 -16 -12 -17 4 -4 16 13 21 21 13 21 -2 0 -10 -8 -17
-17z"/>
<path d="M1540 1680 c0 -5 5 -10 11 -10 5 0 7 5 4 10 -3 6 -8 10 -11 10 -2 0
-4 -4 -4 -10z"/>
<path d="M1820 1680 c-8 -5 -12 -12 -9 -15 4 -3 12 1 19 10 14 17 11 19 -10 5z"/>
<path d="M1598 1673 c12 -2 32 -2 45 0 12 2 2 4 -23 4 -25 0 -35 -2 -22 -4z"/>
<path d="M1720 1671 c0 -5 9 -7 20 -4 11 3 20 7 20 9 0 2 -9 4 -20 4 -11 0
-20 -4 -20 -9z"/>
<path d="M1910 1665 c-7 -9 -8 -15 -2 -15 5 0 12 7 16 15 3 8 4 15 2 15 -2 0
-9 -7 -16 -15z"/>
<path d="M2224 1658 l-19 -23 23 19 c21 18 27 26 19 26 -2 0 -12 -10 -23 -22z"/>
<path d="M2870 1635 c-1 -70 -17 -175 -35 -230 -25 -71 -75 -175 -85 -175 -5
0 3 26 17 58 23 53 64 192 62 216 0 6 -13 -28 -29 -75 -61 -184 -217 -407
-321 -459 -15 -7 -10 -1 11 16 84 67 158 166 190 254 15 40 16 50 5 36 -8 -11
-15 -24 -15 -28 0 -5 -18 -37 -41 -73 -29 -46 -57 -75 -101 -105 -86 -57 -102
-50 -32 16 l59 55 -47 -32 c-27 -18 -51 -30 -54 -27 -3 3 9 22 25 41 31 35 40
54 20 41 -6 -3 -3 8 5 25 9 17 19 31 22 31 2 0 0 -9 -6 -19 -13 -25 -13 -34 0
-26 6 4 22 30 36 58 33 63 65 108 74 102 5 -3 11 11 14 31 4 19 10 43 12 52 3
9 -10 -12 -30 -48 -39 -69 -104 -143 -121 -136 -6 2 -24 -7 -40 -20 -28 -23
-29 -24 -7 -24 27 0 27 3 1 -54 -11 -25 -17 -51 -14 -57 4 -6 -2 -13 -14 -16
-17 -4 -19 -9 -10 -24 5 -11 6 -19 2 -18 -16 4 -45 -14 -34 -20 10 -7 -23
-101 -64 -182 -35 -70 -94 -135 -165 -184 -39 -27 -83 -60 -97 -72 -14 -13
-29 -20 -34 -17 -15 9 -51 -17 -45 -33 4 -9 -8 -28 -29 -49 -34 -33 -64 -46
-49 -22 4 6 -11 -3 -34 -21 -35 -28 -47 -33 -77 -28 -36 6 -44 0 -23 -21 15
-15 10 -20 -27 -22 -56 -4 -86 0 -80 10 3 6 -4 10 -17 11 -18 1 -17 3 9 10 18
5 49 21 69 34 39 26 162 68 176 59 4 -3 8 0 8 6 0 7 6 10 14 7 7 -3 19 0 25 6
22 22 10 26 -31 8 -83 -35 -231 -73 -264 -67 -43 9 -185 95 -259 158 -33 29
-51 42 -40 29 11 -13 47 -46 80 -74 l60 -50 -60 6 c-60 6 -60 6 -28 -10 25
-12 39 -13 62 -5 42 15 45 2 13 -44 -16 -21 -52 -73 -82 -114 -29 -41 -46 -69
-37 -61 29 23 19 -6 -14 -44 -28 -31 -76 -65 -94 -65 -3 0 -5 19 -5 43 0 24
-8 56 -20 74 -28 46 -35 41 -10 -7 23 -45 28 -130 7 -130 -26 0 -45 26 -52 68
-6 34 -4 42 9 42 8 0 23 -12 31 -27 9 -16 14 -20 11 -10 -3 10 -6 25 -6 33 0
21 -54 17 -103 -7 -72 -37 -88 -50 -77 -64 7 -8 -2 -18 -32 -35 l-42 -24 34
-14 c19 -8 43 -15 55 -16 11 -1 29 -7 40 -13 30 -16 219 -51 319 -58 98 -8
103 -2 32 40 -42 24 -44 28 -48 81 -5 55 -21 80 -43 66 -5 -3 4 12 20 33 17
22 37 54 44 70 7 17 19 40 27 52 13 20 17 21 41 10 15 -6 38 -23 51 -36 24
-24 25 -27 19 -145 -4 -67 -9 -134 -12 -151 l-5 -30 10 30 c6 17 13 70 17 118
4 54 10 86 16 84 24 -8 47 -57 62 -132 9 -44 17 -81 19 -83 2 -1 22 0 45 4
l43 7 -7 58 c-4 37 -3 59 3 59 14 0 22 -25 22 -71 0 -29 4 -39 16 -39 13 0 15
8 12 35 -3 25 0 35 10 35 17 0 55 -20 64 -34 5 -8 8 -7 8 1 0 15 -36 39 -72
48 -16 4 -28 11 -28 15 0 4 -13 13 -30 19 -21 7 -30 17 -30 31 0 12 -17 37
-38 57 -22 22 -28 31 -15 24 19 -10 29 -8 60 9 21 12 30 19 21 16 -9 -3 -19 2
-22 10 -7 17 38 38 66 31 10 -3 16 -2 13 3 -3 4 12 -1 32 -11 21 -11 44 -19
53 -19 8 0 0 8 -17 16 -18 9 -30 20 -27 25 3 5 -5 9 -18 10 -13 0 4 8 37 18
64 18 140 54 150 70 3 6 -14 -1 -37 -14 -63 -36 -68 -31 -18 20 47 48 63 52
123 31 20 -8 37 -10 37 -5 0 5 -6 9 -13 9 -7 0 -18 5 -25 12 -7 7 -22 12 -35
13 -47 0 -24 19 26 20 98 4 245 107 264 184 3 14 10 31 15 38 5 7 6 18 2 24
-4 8 -3 9 5 5 6 -4 21 -4 32 -1 19 6 21 13 17 56 -3 27 -1 52 4 55 5 3 7 12 4
20 -3 8 0 11 11 7 8 -3 18 -1 22 4 7 12 81 63 91 63 7 0 -3 -97 -14 -140 -3
-14 6 -2 20 27 13 28 28 75 31 103 5 44 11 56 44 82 20 16 41 30 46 30 4 -1
13 9 20 21 12 22 12 22 12 -3 0 -14 -4 -43 -8 -65 l-9 -40 -1 34 c-2 58 -12
28 -27 -79 -8 -55 -21 -117 -29 -137 -21 -50 -19 -54 7 -13 12 19 34 70 49
113 32 92 39 102 39 56 0 -35 22 -116 39 -147 8 -13 9 -9 6 18 -2 19 -7 69 -9
111 l-5 75 47 45 c65 63 169 219 188 286 9 30 14 70 12 88 -2 19 0 31 4 29 4
-3 7 16 6 43 -1 37 -2 41 -5 15 -3 -20 -9 -32 -16 -29 -13 4 -13 6 -15 80 -1
26 -7 47 -13 47 -5 0 -9 -8 -8 -17 4 -43 -2 -113 -10 -113 -4 0 -6 11 -3 25 3
18 0 25 -12 25 -9 0 -16 8 -16 19 0 10 -9 38 -20 62 l-20 44 0 -50z m-10 -387
c-28 -82 -82 -188 -98 -188 -3 0 -2 36 1 81 6 71 13 93 64 197 l58 117 3 -57
c2 -43 -5 -80 -28 -150z m-183 -280 c-3 -8 -6 -5 -6 6 -1 11 2 17 5 13 3 -3 4
-12 1 -19z m-287 -124 c0 -2 -9 -8 -20 -14 -15 -8 -18 -8 -14 3 4 11 34 21 34
11z m-782 -404 c50 -22 73 -48 32 -37 -11 3 -20 1 -20 -4 0 -5 -9 -9 -20 -9
-11 0 -20 5 -20 10 0 7 -18 8 -50 4 -27 -4 -50 -3 -50 2 0 14 54 65 65 60 5
-2 34 -14 63 -26z m-28 -61 c0 -5 -15 -9 -32 -9 l-33 0 25 14 c26 13 40 12 40
-5z m-210 -196 c0 -5 -14 -22 -30 -40 -28 -31 -31 -32 -60 -19 -35 14 -29 24
31 50 38 17 59 20 59 9z m-255 -37 c19 -8 35 -17 35 -19 0 -2 -25 1 -55 6 -35
7 -51 13 -43 19 18 11 24 10 63 -6z m235 -56 c18 -12 2 -12 -25 0 -13 6 -15 9
-5 9 8 0 22 -4 30 -9z"/>
<path d="M1686 1614 c-10 -14 -20 -23 -23 -20 -3 3 -18 -1 -34 -9 -32 -17 -79
-20 -79 -6 0 6 -11 7 -27 1 -16 -5 -53 -11 -84 -13 -31 -2 -63 -8 -70 -13 -26
-16 -83 -33 -92 -27 -6 3 -7 1 -3 -5 4 -6 1 -20 -6 -31 -10 -16 -9 -26 5 -55
15 -32 37 -49 37 -28 0 5 7 17 15 28 14 18 14 17 5 -9 -13 -37 -13 -84 0 -92
8 -5 8 -11 0 -20 -8 -10 -7 -22 4 -47 l14 -33 1 29 c1 15 11 39 24 52 23 24
47 32 47 14 0 -5 4 -10 10 -10 5 0 7 7 4 15 -5 11 1 15 25 15 23 0 29 -4 25
-15 -7 -17 11 -21 21 -5 11 18 25 11 25 -12 1 -21 2 -22 14 -5 19 24 26 21 26
-12 0 -34 15 -49 24 -25 13 35 5 59 -25 77 -34 19 -34 42 0 41 11 0 21 4 21 9
0 14 -33 67 -42 67 -4 0 -8 5 -8 10 0 28 75 1 141 -51 20 -16 39 -25 43 -22 4
4 4 -1 0 -11 -5 -14 -4 -17 4 -12 25 15 13 66 -27 109 -22 24 -36 48 -33 57 5
13 3 13 -13 0 -17 -14 -18 -14 -6 8 7 12 15 20 20 18 8 -5 46 53 38 60 -2 3
-12 -7 -21 -22z m-249 -70 c-3 -3 -12 -4 -19 -1 -8 3 -5 6 6 6 11 1 17 -2 13
-5z m133 -14 c0 -5 -4 -10 -9 -10 -6 0 -13 5 -16 10 -3 6 1 10 9 10 9 0 16 -4
16 -10z"/>
<path d="M2016 1603 c-6 -14 -5 -15 5 -6 7 7 10 15 7 18 -3 3 -9 -2 -12 -12z"/>
<path d="M478 1603 c31 -4 32 -5 32 -55 0 -42 -8 -65 -44 -127 -52 -91 -75
-156 -79 -220 -1 -37 -6 -47 -20 -48 -48 -4 -79 180 -48 292 12 43 14 62 6 59
-6 -3 -12 -11 -12 -18 0 -15 -42 -202 -51 -226 -3 -9 -8 -2 -11 18 -3 18 -10
32 -15 32 -5 -1 -12 4 -17 11 -11 19 -30 -33 -36 -101 l-5 -55 56 -35 c39 -25
57 -43 62 -63 7 -32 -10 -59 -33 -50 -12 5 -14 1 -9 -15 5 -16 2 -22 -16 -25
-37 -7 32 1 88 11 59 9 109 43 92 60 -20 20 1 26 23 6 19 -17 19 -14 -5 29
-59 112 -49 163 79 402 26 50 52 89 57 87 5 -1 7 2 3 8 -10 16 -19 12 -37 -17
l-17 -28 -1 28 c0 15 6 27 13 27 8 0 7 4 -3 10 -8 5 -31 9 -50 8 l-35 -1 33
-4z m-184 -302 c-4 -23 -9 -40 -11 -37 -3 3 -2 23 2 46 4 23 9 39 11 37 3 -2
2 -23 -2 -46z m31 -125 c9 -18 25 -43 37 -56 l21 -22 -23 7 c-17 5 -21 4 -15
-6 4 -8 -6 0 -23 16 -25 25 -29 36 -25 63 3 17 7 32 9 32 2 0 10 -15 19 -34z
m-38 2 c-3 -8 -6 -5 -6 6 -1 11 2 17 5 13 3 -3 4 -12 1 -19z"/>
<path d="M300 1152 c0 -5 10 -17 22 -28 l21 -19 -18 28 c-18 28 -25 33 -25 19z"/>
<path d="M415 1590 c-3 -6 1 -7 9 -4 18 7 21 14 7 14 -6 0 -13 -4 -16 -10z"/>
<path d="M1005 1563 c-22 -15 -60 -33 -85 -39 -25 -7 -38 -13 -29 -13 35 -2
43 -27 30 -99 -6 -37 -12 -109 -13 -159 -1 -56 -5 -93 -11 -93 -6 0 -21 10
-34 22 -20 19 -23 19 -23 4 0 -11 4 -14 12 -10 8 5 9 2 5 -10 -8 -20 28 -134
49 -156 12 -12 14 -12 15 5 0 11 9 -9 20 -45 12 -36 25 -69 31 -75 5 -5 4 4
-2 20 -7 17 -14 82 -18 145 -3 72 -8 106 -13 90 -5 -16 -7 0 -8 47 -1 39 3 73
7 75 11 4 42 210 36 235 -5 18 3 28 43 52 26 17 43 31 38 31 -6 0 -28 -12 -50
-27z"/>
<path d="M1262 1560 c0 -14 2 -19 5 -12 2 6 2 18 0 25 -3 6 -5 1 -5 -13z"/>
<path d="M2524 1550 c-4 -16 -11 -30 -16 -30 -5 0 -6 -6 -2 -12 5 -7 8 -26 8
-43 l-1 -30 4 28 c3 21 9 27 20 23 13 -5 14 -4 3 9 -8 9 -10 29 -7 50 7 43 -1
47 -9 5z"/>
<path d="M600 1555 c10 -12 10 -21 1 -41 -6 -14 -11 -30 -11 -37 1 -7 8 4 16
23 8 19 19 37 25 40 5 4 -3 12 -17 19 -25 11 -26 10 -14 -4z"/>
<path d="M2204 1518 c-16 -24 -27 -47 -26 -51 1 -4 -2 -17 -8 -27 -6 -11 -8
-20 -5 -20 2 0 21 32 40 70 19 39 34 70 31 70 -2 0 -16 -19 -32 -42z"/>
<path d="M361 1527 c-13 -21 -12 -21 5 -5 10 10 16 20 13 22 -3 3 -11 -5 -18
-17z"/>
<path d="M660 1530 c8 -5 20 -10 25 -10 6 0 3 5 -5 10 -8 5 -19 10 -25 10 -5
0 -3 -5 5 -10z"/>
<path d="M727 1473 c-4 -21 -7 -75 -7 -119 0 -88 -13 -110 -46 -77 -16 16 -16
15 -10 -7 12 -40 70 -151 85 -163 8 -7 12 -7 9 -1 -13 21 -28 260 -21 319 l8
60 45 6 c44 6 44 6 8 7 -20 1 -43 4 -51 8 -10 4 -16 -5 -20 -33z m1 -294 c-3
-8 -7 -3 -11 10 -4 17 -3 21 5 13 5 -5 8 -16 6 -23z"/>
<path d="M848 1503 c7 -3 16 -2 19 1 4 3 -2 6 -13 5 -11 0 -14 -3 -6 -6z"/>
<path d="M280 1480 c-9 -6 -10 -10 -3 -10 6 0 15 5 18 10 8 12 4 12 -15 0z"/>
<path d="M575 1430 c-4 -17 -5 -34 -2 -36 2 -3 7 10 11 27 8 42 0 50 -9 9z"/>
<path d="M1132 1420 c0 -19 2 -27 5 -17 2 9 2 25 0 35 -3 9 -5 1 -5 -18z"/>
<path d="M152 1329 c-85 -118 -77 -123 10 -5 33 44 65 84 70 87 6 4 7 9 1 12
-6 4 -42 -39 -81 -94z"/>
<path d="M1899 1403 c-13 -16 -12 -17 4 -4 9 7 17 15 17 17 0 8 -8 3 -21 -13z"/>
<path d="M781 1394 c0 -11 3 -14 6 -6 3 7 2 16 -1 19 -3 4 -6 -2 -5 -13z"/>
<path d="M2025 1360 c-27 -17 -46 -30 -42 -30 13 0 85 39 92 50 8 14 7 13 -50
-20z"/>
<path d="M541 1292 c-12 -49 -21 -99 -21 -110 0 -30 -24 -18 -45 21 l-16 32 4
-60 c6 -68 42 -143 82 -169 29 -19 29 -20 10 34 -19 55 -19 161 1 256 22 107
10 104 -15 -4z m-21 -174 c0 -23 -3 -29 -9 -19 -8 12 -4 51 5 51 2 0 4 -15 4
-32z"/>
<path d="M57 1203 c-4 -3 -7 -11 -7 -17 0 -6 5 -5 12 2 6 6 9 14 7 17 -3 3 -9
2 -12 -2z"/>
<path d="M2264 1190 c-100 -9 -174 -35 -174 -62 0 -14 5 -18 18 -14 124 35
203 27 247 -26 l25 -30 9 24 c10 26 0 50 -29 71 -13 9 -18 20 -14 31 3 9 5 15
3 15 -2 -1 -40 -5 -85 -9z"/>
<path d="M634 1070 c13 -69 18 -122 12 -146 l-7 -26 -20 26 c-26 33 -96 69
-96 49 0 -7 9 -13 20 -13 23 0 87 -62 87 -84 0 -26 19 -18 26 10 9 36 -2 169
-16 191 -10 16 -11 15 -6 -7z"/>
<path d="M779 1020 c9 -27 17 -44 19 -39 4 11 -17 77 -27 83 -4 3 0 -17 8 -44z"/>
<path d="M1200 1053 c0 -10 12 -40 25 -68 14 -27 23 -42 20 -32 -3 11 -7 30
-10 43 -3 13 -7 35 -10 49 -6 28 -25 34 -25 8z"/>
<path d="M462 1018 c3 -7 13 -15 24 -17 16 -3 17 -1 5 13 -16 19 -34 21 -29 4z"/>
<path d="M138 993 c6 -2 18 -2 25 0 6 3 1 5 -13 5 -14 0 -19 -2 -12 -5z"/>
<path d="M378 973 c18 -2 45 -2 60 0 15 2 0 4 -33 4 -33 0 -45 -2 -27 -4z"/>
<path d="M796 900 c-5 -36 -15 -78 -23 -93 -8 -16 -12 -31 -9 -35 6 -5 -9 -15
-72 -48 -21 -12 -28 -20 -20 -25 18 -11 -6 -179 -40 -283 -16 -48 -25 -89 -22
-91 4 -2 17 30 29 71 l23 75 34 -48 c27 -38 33 -54 28 -78 -15 -78 -15 -81 1
-46 8 18 15 43 15 55 0 11 12 57 26 101 14 44 23 90 21 103 -5 24 11 29 44 12
13 -8 19 -7 19 0 0 8 11 9 31 5 24 -6 30 -4 24 6 -6 9 -4 11 7 6 9 -3 25 4 37
17 28 30 27 45 -1 18 -18 -16 -86 -40 -119 -42 -3 0 -19 11 -35 25 -16 14 -35
25 -41 25 -15 0 -16 10 -3 30 6 10 10 11 10 3 0 -42 90 18 127 85 22 38 22 40
4 45 -15 4 -20 -2 -25 -34 -4 -25 -12 -39 -21 -39 -11 0 -15 14 -16 58 l-1 57
-15 -37 c-16 -39 -27 -46 -38 -28 -4 6 5 27 20 46 25 33 26 39 18 92 l-9 57
-8 -65z"/>
<path d="M920 946 c0 -4 7 -38 15 -75 26 -116 47 -260 40 -273 -3 -7 0 -6 6 3
11 15 16 13 39 -20 15 -20 38 -42 52 -50 18 -9 33 -32 47 -70 34 -92 54 -106
24 -17 -18 57 -23 81 -14 84 7 2 -1 18 -20 40 -17 19 -38 51 -46 70 -8 19 -17
31 -20 28 -9 -9 -34 46 -28 61 3 8 10 11 17 7 7 -4 6 1 -3 12 -9 10 -37 62
-63 114 -25 52 -46 91 -46 86z m100 -260 c0 -11 -19 -15 -25 -6 -3 5 1 10 9
10 9 0 16 -2 16 -4z m40 -71 c0 -5 -5 -3 -10 5 -5 8 -10 20 -10 25 0 6 5 3 10
-5 5 -8 10 -19 10 -25z m15 -55 c10 -11 13 -20 7 -20 -6 0 -16 9 -22 20 -6 11
-9 20 -7 20 2 0 12 -9 22 -20z"/>
<path d="M1259 915 c6 -11 20 -31 31 -45 15 -17 18 -19 11 -5 -6 11 -20 31
-31 45 -15 17 -18 19 -11 5z"/>
<path d="M2500 858 c-7 -40 -16 -86 -21 -103 l-9 -30 20 25 c11 14 20 30 20
35 4 39 7 145 4 145 -1 0 -8 -33 -14 -72z"/>
<path d="M1728 880 c12 -5 22 -14 22 -20 0 -5 16 -31 36 -57 38 -49 64 -102
67 -133 1 -10 7 -16 14 -13 17 7 63 84 63 106 0 29 -164 128 -209 126 -11 0
-9 -3 7 -9z"/>
<path d="M670 818 c-7 -18 -24 -48 -37 -65 -24 -33 -24 -33 -3 -33 32 0 75 26
95 57 16 24 16 26 2 14 -26 -21 -45 -8 -39 28 6 40 -2 39 -18 -1z"/>
<path d="M2421 754 c0 -11 3 -14 6 -6 3 7 2 16 -1 19 -3 4 -6 -2 -5 -13z"/>
<path d="M2579 733 c-29 -47 -36 -65 -14 -38 19 23 48 75 41 75 -2 0 -15 -17
-27 -37z"/>
<path d="M1223 718 c36 -91 60 -146 70 -159 17 -22 66 -53 74 -46 3 4 -6 11
-20 16 -28 11 -66 65 -85 120 -7 19 -12 36 -12 37 0 7 19 4 47 -7 15 -7 44
-13 63 -15 28 -3 24 0 -21 15 -31 10 -67 25 -80 35 -28 19 -43 21 -36 4z"/>
<path d="M2478 664 c-32 -17 -34 -21 -13 -21 8 0 22 9 32 19 19 22 17 22 -19
2z"/>
<path d="M2439 611 c20 -13 -15 -66 -87 -132 -45 -41 -50 -49 -25 -35 33 17
102 96 129 148 14 27 14 28 -8 28 -17 0 -20 -3 -9 -9z"/>
<path d="M2554 596 c-3 -8 -4 -23 -2 -33 3 -11 6 -6 9 15 6 34 2 42 -7 18z"/>
<path d="M2322 550 c-24 -21 -62 -46 -85 -54 -41 -16 -41 -16 -7 -10 82 13 88
17 119 70 11 19 19 34 18 34 -1 -1 -21 -18 -45 -40z"/>
<path d="M1180 555 c13 -14 27 -22 31 -19 5 3 9 1 9 -4 0 -11 60 -35 68 -27 3
3 1 5 -5 5 -5 0 -30 14 -54 32 -54 39 -80 46 -49 13z"/>
<path d="M910 555 c-25 -10 -29 -14 -14 -14 11 -1 29 6 40 14 23 17 19 17 -26
0z"/>
<path d="M1150 516 c0 -2 7 -7 16 -10 8 -3 12 -2 9 4 -6 10 -25 14 -25 6z"/>
<path d="M1333 479 c14 -8 22 -8 30 0 8 8 3 11 -18 11 -26 -1 -28 -2 -12 -11z"/>
<path d="M2130 476 c0 -9 30 -14 35 -6 4 6 -3 10 -14 10 -12 0 -21 -2 -21 -4z"/>
<path d="M2178 453 c7 -3 16 -2 19 1 4 3 -2 6 -13 5 -11 0 -14 -3 -6 -6z"/>
<path d="M2141 399 c-29 -40 -21 -46 26 -21 22 10 54 23 73 27 l35 7 -23 -24
c-12 -14 -19 -28 -15 -33 5 -4 3 -5 -4 -1 -7 4 -25 0 -41 -8 -25 -13 -32 -13
-57 0 -19 10 -31 11 -35 4 -4 -6 -15 -7 -25 -4 -14 6 -17 4 -12 -9 7 -19 -17
-41 -38 -33 -8 3 -15 1 -15 -5 0 -6 -9 -8 -20 -4 -12 4 -20 2 -20 -6 0 -8 -16
-10 -57 -6 -42 4 -53 3 -40 -4 10 -6 40 -12 66 -13 42 -2 52 -7 85 -44 49 -54
101 -71 142 -48 l29 16 -30 -6 c-16 -4 -32 -7 -35 -6 -33 0 -49 4 -64 15 -16
12 -13 13 20 10 l39 -3 -40 15 c-34 12 -35 13 -9 9 23 -4 45 3 82 25 27 16 58
31 68 34 11 3 2 5 -19 6 -24 1 -36 -3 -32 -9 8 -13 -71 -49 -95 -43 -10 3 -27
14 -36 25 -26 27 -3 40 61 35 49 -4 49 -4 20 9 l-30 13 38 1 c21 0 51 7 66 15
16 8 31 12 34 8 8 -8 88 40 112 68 17 19 13 18 -17 -5 -38 -28 -42 -27 -38 7
1 14 -3 17 -17 13 -51 -15 -73 -17 -91 -7 -16 8 -23 5 -41 -20z m39 1 c-20
-13 -33 -13 -25 0 3 6 14 10 23 10 15 0 15 -2 2 -10z"/>
<path d="M1811 317 c2 -1 13 -9 24 -17 19 -14 19 -14 6 3 -7 9 -18 17 -24 17
-6 0 -8 -1 -6 -3z"/>
<path d="M2200 235 c-32 -7 -44 -13 -29 -14 14 0 30 -6 37 -13 9 -9 15 -9 24
0 9 9 9 12 -2 12 -8 1 -1 7 15 15 37 16 26 17 -45 0z"/>
<path d="M1578 56 c-3 -14 -1 -26 4 -26 14 0 22 30 11 41 -7 7 -12 2 -15 -15z"/>
</g>
</svg>
