<?xml version="1.0" standalone="no"?>
<!DOCTYPE svg PUBLIC "-//W3C//DTD SVG 20010904//EN"
 "http://www.w3.org/TR/2001/REC-SVG-20010904/DTD/svg10.dtd">
<svg version="1.0" xmlns="http://www.w3.org/2000/svg"
 width="310.000000pt" height="310.000000pt" viewBox="0 0 310.000000 310.000000"
 preserveAspectRatio="xMidYMid meet">
<metadata>
Created by potrace 1.11, written by Peter Selinger 2001-2013
</metadata>
<g transform="translate(0.000000,310.000000) scale(0.100000,-0.100000)"
fill="#000000" stroke="none">
<path d="M1649 3083 c-8 -9 -45 -37 -84 -61 -38 -25 -72 -49 -75 -53 -3 -5
-27 -20 -53 -34 -45 -23 -47 -24 -36 -4 19 36 3 31 -27 -8 -15 -21 -50 -58
-76 -84 -73 -69 -66 -81 32 -53 117 33 441 48 520 24 l45 -14 -40 -6 c-22 -3
-45 -9 -52 -13 -6 -4 -42 0 -79 9 -61 14 -77 14 -168 -1 -109 -17 -147 -30
-50 -18 82 11 252 9 263 -2 7 -7 -26 -9 -92 -8 -67 0 -86 -1 -57 -6 l45 -6
-53 -19 c-68 -23 -63 -30 8 -10 58 15 235 30 190 16 -22 -8 -20 -9 23 -16 26
-4 47 -12 47 -17 0 -5 -15 -19 -32 -30 -18 -12 -24 -18 -13 -14 11 4 48 18 83
31 35 13 77 24 95 24 l32 0 -30 -14 c-16 -8 -63 -29 -102 -47 -74 -32 -89 -45
-54 -45 11 0 17 4 15 8 -5 8 53 24 69 20 5 -1 6 2 3 7 -3 5 6 11 19 14 14 2
28 0 31 -4 3 -5 13 -6 22 -1 22 10 43 9 61 -2 9 -6 12 -5 8 1 -3 5 0 10 8 10
8 0 12 -3 10 -7 -4 -6 20 -31 40 -40 6 -3 9 -8 8 -12 -4 -12 31 5 44 21 16 21
16 31 0 31 -7 0 -26 14 -42 30 -16 17 -34 30 -40 30 -6 0 -20 6 -31 14 -33 25
64 -1 114 -30 41 -24 52 -39 32 -46 -5 -1 21 -3 58 -3 48 -1 80 -7 112 -23 25
-12 36 -20 25 -17 -11 4 -47 9 -81 12 -52 5 -70 2 -118 -20 -31 -14 -56 -31
-56 -36 0 -16 12 -13 40 9 57 44 117 14 159 -80 17 -37 21 -41 21 -20 0 19 5
26 19 26 11 0 17 -4 15 -8 -3 -4 0 -8 7 -8 7 0 25 -12 40 -26 14 -14 34 -26
42 -28 9 -1 26 -11 38 -22 13 -10 6 3 -14 30 -51 67 -50 80 2 48 28 -17 111
-109 111 -123 0 -4 15 -16 33 -27 20 -12 42 -37 55 -66 25 -52 29 -75 6 -32
-12 21 -19 25 -27 17 -8 -8 -6 -15 9 -27 10 -8 13 -12 5 -8 -11 5 -13 3 -7
-11 3 -10 14 -47 22 -82 17 -65 22 -71 42 -51 15 15 62 -5 62 -26 0 -23 -40
-47 -60 -36 -10 5 -20 7 -22 5 -3 -3 -26 38 -52 91 -26 53 -49 94 -52 91 -3
-2 2 -22 11 -43 27 -66 54 -185 70 -316 15 -125 15 -128 -9 -250 -13 -67 -36
-153 -50 -190 -14 -38 -23 -68 -22 -68 7 0 42 66 58 110 39 106 50 172 47 305
-2 143 3 165 33 160 37 -8 62 -18 76 -31 17 -18 28 -18 36 1 3 9 0 15 -10 15
-12 0 -13 4 -4 20 6 11 8 26 4 32 -11 18 -13 79 -2 72 5 -3 7 -12 4 -19 -3 -8
-2 -15 2 -17 14 -6 44 -77 38 -87 -4 -6 -3 -11 3 -11 5 0 3 -14 -6 -30 -11
-24 -18 -28 -28 -20 -8 7 -16 7 -19 2 -7 -11 30 -23 49 -15 8 2 11 11 9 18 -3
7 0 16 7 21 8 4 10 3 5 -4 -4 -6 1 -26 9 -43 9 -17 19 -65 22 -105 3 -41 10
-77 14 -80 22 -13 -3 134 -42 256 -39 118 -132 299 -193 374 l-46 57 0 394 0
395 -534 0 c-486 0 -535 -1 -547 -17z m362 -314 c58 -20 58 -31 2 -23 -34 4
-58 3 -66 -4 -19 -16 -56 -4 -54 19 1 15 9 19 43 19 22 0 56 -5 75 -11z"/>
<path d="M1045 3015 c17 -46 16 -54 -12 -80 l-28 -26 58 -52 c31 -29 57 -56
57 -61 0 -4 -9 -19 -20 -33 -11 -14 -17 -29 -15 -33 3 -5 -3 -11 -14 -15 -11
-3 -22 -13 -25 -21 -3 -9 -11 -12 -18 -8 -8 5 -9 2 -5 -10 4 -9 3 -15 -2 -11
-5 3 -17 -3 -27 -12 -9 -10 -47 -35 -83 -55 l-65 -37 -48 45 c-40 37 -54 44
-88 44 -34 0 -40 -3 -40 -21 0 -24 70 -99 112 -120 27 -14 27 -16 12 -37 -9
-13 -26 -22 -41 -22 -32 0 -187 47 -235 71 -51 26 -61 23 -18 -4 19 -12 54
-41 76 -65 27 -27 50 -42 67 -42 58 0 59 -52 2 -120 -19 -23 -35 -48 -35 -56
0 -11 -5 -11 -24 -3 -18 9 -31 7 -57 -6 -28 -14 -140 -103 -159 -125 -3 -4
-13 -9 -23 -13 -10 -4 -15 -11 -12 -17 6 -9 -7 -14 -31 -11 -6 1 -11 -5 -11
-14 0 -8 4 -12 9 -9 4 3 8 1 8 -5 0 -7 8 -7 26 -1 14 6 43 10 65 10 49 0 75
13 107 54 14 17 53 58 86 91 34 33 80 83 103 110 23 28 53 57 67 65 14 7 26
22 26 32 0 33 29 75 67 99 21 13 45 32 53 41 8 10 36 33 62 51 26 17 77 55
114 82 l66 50 -5 65 c-3 50 -13 83 -41 139 -39 78 -76 135 -61 96z"/>
<path d="M1548 2743 c7 -3 16 -2 19 1 4 3 -2 6 -13 5 -11 0 -14 -3 -6 -6z"/>
<path d="M345 2670 c-5 -8 -8 -25 -6 -37 1 -14 -3 -23 -10 -23 -20 0 1 -16 46
-34 l39 -17 -23 25 c-13 14 -27 43 -30 63 -5 29 -9 34 -16 23z"/>
<path d="M1979 2619 c-7 -4 -17 -5 -23 -2 -5 3 -6 1 -2 -5 4 -7 2 -12 -4 -12
-13 0 -108 -70 -134 -99 -27 -30 -15 -26 29 9 76 60 179 73 278 35 43 -16 47
-21 63 -74 10 -34 16 -95 17 -156 0 -63 3 -87 7 -65 l7 35 12 -30 c7 -16 17
-70 21 -120 7 -78 8 -72 4 45 -3 76 -11 155 -20 180 -33 105 -42 150 -28 150
23 0 74 -51 74 -75 0 -12 7 -29 17 -36 9 -8 27 -36 40 -64 l24 -50 -6 60 c-9
83 -34 177 -52 198 -20 22 -40 22 -86 -2 -20 -10 -37 -15 -37 -11 0 5 -9 12
-20 15 -11 3 -20 12 -20 20 0 7 -8 23 -18 35 -15 19 -30 24 -75 25 -31 1 -61
-2 -68 -6z m328 -114 c-4 -8 -11 -15 -17 -15 -7 0 -7 6 0 21 13 23 26 19 17
-6z m13 -24 c0 -5 3 -18 7 -28 6 -17 5 -17 -15 1 -12 10 -19 23 -16 27 7 12
24 11 24 0z"/>
<path d="M1703 2594 c-48 -28 -59 -43 -15 -20 30 16 70 45 62 46 -3 0 -24 -12
-47 -26z"/>
<path d="M1602 2535 c-24 -14 -57 -34 -73 -46 -16 -11 -29 -18 -29 -14 0 3 -6
0 -14 -7 -8 -7 -13 -14 -11 -16 2 -2 -13 -19 -33 -38 -30 -29 -27 -28 18 8 30
24 86 63 123 87 57 37 76 51 65 51 -2 0 -22 -11 -46 -25z"/>
<path d="M2036 2518 c4 -7 3 -8 -5 -4 -13 8 -68 -23 -97 -55 l-19 -21 35 20
c19 11 56 28 83 37 52 19 61 35 21 35 -16 0 -23 -4 -18 -12z"/>
<path d="M238 2506 c-24 -18 -23 -32 3 -39 14 -4 23 1 28 16 14 36 0 47 -31
23z"/>
<path d="M2118 2471 c-4 -42 5 -63 16 -39 3 7 5 1 3 -14 -2 -15 0 -33 4 -40 5
-8 9 9 9 43 0 31 -6 63 -14 74 -12 17 -14 15 -18 -24z"/>
<path d="M1183 2483 c26 -2 67 -2 90 0 23 2 2 3 -48 3 -49 0 -68 -1 -42 -3z"/>
<path d="M1030 2310 c8 -5 20 -10 25 -10 6 0 3 5 -5 10 -8 5 -19 10 -25 10 -5
0 -3 -5 5 -10z"/>
<path d="M727 2208 c-14 -32 -22 -60 -17 -63 5 -3 11 8 15 24 3 16 17 43 31
62 28 39 27 36 11 36 -8 0 -25 -27 -40 -59z"/>
<path d="M1168 2253 c7 -3 16 -2 19 1 4 3 -2 6 -13 5 -11 0 -14 -3 -6 -6z"/>
<path d="M1549 2243 c-13 -16 -12 -17 4 -4 9 7 17 15 17 17 0 8 -8 3 -21 -13z"/>
<path d="M1208 2243 c7 -3 16 -2 19 1 4 3 -2 6 -13 5 -11 0 -14 -3 -6 -6z"/>
<path d="M830 2205 c0 -5 5 -17 10 -25 5 -8 10 -10 10 -5 0 6 -5 17 -10 25 -5
8 -10 11 -10 5z"/>
<path d="M2191 2194 c0 -11 3 -14 6 -6 3 7 2 16 -1 19 -3 4 -6 -2 -5 -13z"/>
<path d="M960 2196 c0 -2 8 -10 18 -17 15 -13 16 -12 3 4 -13 16 -21 21 -21
13z"/>
<path d="M2181 2163 c-1 -6 -4 -20 -7 -30 -5 -17 -5 -17 6 0 6 10 9 23 6 30
-3 9 -5 9 -5 0z"/>
<path d="M2511 2154 c0 -11 3 -14 6 -6 3 7 2 16 -1 19 -3 4 -6 -2 -5 -13z"/>
<path d="M2575 2140 c3 -19 10 -71 15 -115 14 -105 3 -250 -25 -350 -13 -44
-22 -81 -20 -83 9 -9 67 201 72 261 3 37 10 67 15 67 5 0 4 9 -2 21 -11 19
-10 20 9 9 18 -9 21 -8 20 7 -1 23 -17 63 -18 44 -1 -22 -41 28 -42 53 0 12
-7 44 -15 71 -9 35 -12 39 -9 15z"/>
<path d="M590 2129 l-25 -20 30 14 c26 13 33 13 59 0 22 -12 31 -12 40 -2 8 9
8 10 -1 5 -7 -4 -26 0 -42 9 -36 18 -31 19 -61 -6z"/>
<path d="M833 2130 c13 -9 17 -25 17 -74 0 -50 4 -65 16 -70 14 -5 15 -4 5 8
-7 9 -11 39 -9 76 l3 62 25 -41 c14 -22 29 -41 33 -41 5 0 -5 19 -22 42 -21
29 -40 43 -59 45 -23 3 -24 1 -9 -7z"/>
<path d="M1176 2098 c-32 -55 -76 -155 -76 -171 1 -12 71 119 97 181 19 45 9
40 -21 -10z"/>
<path d="M1438 2092 c-52 -70 -71 -109 -56 -118 7 -4 14 -1 17 7 2 8 21 47 42
87 20 39 36 72 35 72 -1 0 -18 -22 -38 -48z"/>
<path d="M2491 2114 c0 -11 3 -14 6 -6 3 7 2 16 -1 19 -3 4 -6 -2 -5 -13z"/>
<path d="M945 2095 c39 -34 63 -47 68 -37 3 4 -18 20 -46 35 l-52 28 30 -26z"/>
<path d="M2156 2095 c-9 -26 -7 -32 5 -12 6 10 9 21 6 23 -2 3 -7 -2 -11 -11z"/>
<path d="M1135 2090 c3 -5 8 -10 11 -10 2 0 4 5 4 10 0 6 -5 10 -11 10 -5 0
-7 -4 -4 -10z"/>
<path d="M2532 2060 c0 -14 2 -19 5 -12 2 6 2 18 0 25 -3 6 -5 1 -5 -13z"/>
<path d="M2117 2006 c-15 -29 -51 -79 -79 -110 -65 -74 -57 -83 10 -12 29 30
52 54 52 52 0 -7 -55 -136 -77 -181 -21 -43 -21 -47 -4 -25 12 14 32 48 47 75
l25 50 -5 -45 -5 -45 15 40 c9 22 22 80 30 128 7 49 16 97 19 108 11 33 1 21
-28 -35z"/>
<path d="M755 2039 c-4 -6 -5 -12 -2 -15 2 -3 7 2 10 11 7 17 1 20 -8 4z"/>
<path d="M1980 1992 c-23 -54 -25 -56 -30 -28 -4 26 -6 27 -19 13 -7 -10 -19
-17 -25 -17 -6 0 -20 -13 -29 -30 -17 -29 -17 -30 0 -30 35 0 45 -14 33 -46
-6 -16 -21 -40 -33 -54 -16 -19 -14 -17 11 4 17 17 42 52 54 78 12 28 25 43
29 37 5 -8 8 -8 13 0 4 6 5 11 3 11 -2 0 2 26 9 57 7 31 12 58 10 60 -1 1 -13
-23 -26 -55z"/>
<path d="M1090 2020 c-9 -6 -10 -10 -3 -10 6 0 15 5 18 10 8 12 4 12 -15 0z"/>
<path d="M720 1998 c0 -5 9 -8 19 -8 11 0 22 3 24 8 3 4 -6 7 -19 7 -13 0 -24
-3 -24 -7z"/>
<path d="M1012 1970 c24 -30 65 -54 71 -42 2 4 -18 21 -45 39 l-49 32 23 -29z"/>
<path d="M670 1956 c0 -2 8 -10 18 -17 15 -13 16 -12 3 4 -13 16 -21 21 -21
13z"/>
<path d="M2543 1900 c0 -30 2 -43 4 -27 2 15 2 39 0 55 -2 15 -4 2 -4 -28z"/>
<path d="M48 1933 c-45 -7 -49 -21 -46 -158 l3 -127 69 69 c55 55 156 189 156
207 0 3 -8 4 -17 4 -10 -1 -45 1 -78 4 -33 3 -72 4 -87 1z"/>
<path d="M1032 1918 c-7 -7 -12 -26 -12 -42 1 -30 1 -30 15 9 15 43 15 51 -3
33z"/>
<path d="M1412 1885 c-12 -25 -20 -45 -17 -45 7 0 47 81 43 86 -3 2 -14 -17
-26 -41z"/>
<path d="M2651 1893 c0 -31 2 -34 9 -18 8 19 9 18 9 -4 1 -13 4 -22 7 -19 8 9
-7 78 -17 78 -5 0 -9 -17 -8 -37z"/>
<path d="M2433 1908 c-15 -18 -43 -116 -43 -147 0 -21 2 -23 10 -11 7 11 10
11 10 2 0 -7 5 -10 10 -7 15 9 12 -29 -7 -95 -16 -52 -21 -60 -43 -61 -19 -1
-20 -3 -7 -6 19 -5 19 -12 2 -58 -20 -53 78 99 102 159 23 58 28 65 33 45 11
-48 20 0 13 73 l-6 73 -18 -80 c-17 -76 -46 -161 -54 -154 -1 2 3 36 11 74 23
119 15 228 -13 193z"/>
<path d="M970 1876 c0 -2 8 -10 18 -17 15 -13 16 -12 3 4 -13 16 -21 21 -21
13z"/>
<path d="M847 1835 c3 -8 9 -12 14 -9 12 7 11 11 -5 17 -10 4 -13 1 -9 -8z"/>
<path d="M1050 1823 c-7 -16 -12 -39 -11 -53 1 -17 -13 -45 -44 -84 -25 -32
-43 -61 -41 -64 3 -2 19 6 36 18 17 12 29 25 26 27 -3 3 2 19 10 35 17 33 47
139 41 144 -2 2 -10 -8 -17 -23z"/>
<path d="M1275 1794 c-39 -95 -76 -253 -74 -322 2 -46 3 -42 15 48 l7 45 12
-35 c12 -34 12 -34 20 -11 7 23 8 23 18 6 7 -14 7 -20 -1 -23 -17 -5 -15 -37
3 -72 14 -28 35 -41 35 -22 0 5 7 17 16 28 15 18 15 18 5 -3 -14 -28 -14 -90
-1 -98 8 -5 8 -11 0 -20 -8 -10 -7 -22 4 -47 l14 -33 1 30 c1 18 11 39 25 53
25 23 46 29 46 12 0 -5 5 -10 11 -10 6 0 9 7 5 15 -4 11 1 15 19 15 16 0 25
-6 25 -15 0 -11 7 -14 25 -9 20 5 25 2 25 -12 1 -18 1 -18 15 0 8 11 15 18 16
15 5 -27 8 -43 14 -57 5 -14 7 -14 15 -2 20 31 11 64 -21 83 -34 19 -34 42 0
41 28 -1 27 13 -4 59 -24 34 -24 37 -7 37 25 0 79 -27 123 -61 20 -16 39 -25
43 -22 4 4 4 0 0 -10 -3 -10 -1 -17 5 -17 6 0 11 16 11 35 0 27 -9 45 -39 78
-22 24 -36 48 -33 57 5 13 3 13 -13 0 -17 -14 -18 -14 -6 8 7 12 16 20 20 18
4 -3 18 14 30 37 l22 42 -25 -29 c-13 -16 -31 -31 -38 -32 -7 -1 -27 -8 -44
-15 -19 -7 -39 -9 -50 -4 -10 4 -23 7 -29 5 -5 -1 -28 -4 -50 -6 -70 -6 -106
-12 -118 -22 -7 -5 -21 -12 -32 -14 -11 -3 -28 -9 -37 -13 -13 -5 -19 1 -27
27 -7 24 -9 27 -10 11 -1 -12 -5 -25 -11 -28 -25 -15 -3 147 34 253 18 51 12
56 -9 6z m290 -264 c3 -5 1 -10 -4 -10 -6 0 -11 5 -11 10 0 6 2 10 4 10 3 0 8
-4 11 -10z"/>
<path d="M2682 1810 c0 -14 2 -19 5 -12 2 6 2 18 0 25 -3 6 -5 1 -5 -13z"/>
<path d="M1539 1745 l-44 -67 -57 4 c-32 2 -58 1 -58 -4 0 -4 25 -8 56 -8 47
0 55 -3 50 -16 -12 -30 15 -2 36 39 17 33 23 38 26 23 3 -13 10 -1 22 35 10
30 17 55 15 57 -1 2 -23 -27 -46 -63z"/>
<path d="M2320 1803 c0 -6 -16 -35 -37 -64 l-36 -53 30 24 c28 23 59 87 48 99
-3 2 -5 0 -5 -6z"/>
<path d="M909 1753 c-23 -47 -22 -49 5 -14 29 38 30 41 18 41 -5 0 -15 -12
-23 -27z"/>
<path d="M1349 1743 c-15 -41 -39 -135 -38 -153 0 -8 8 9 17 38 9 30 20 51 23
47 4 -3 9 16 10 44 2 28 3 51 1 51 -1 0 -7 -12 -13 -27z"/>
<path d="M1860 1745 c-7 -9 -11 -18 -8 -20 3 -3 11 1 18 10 7 9 11 18 8 20 -3
3 -11 -1 -18 -10z"/>
<path d="M2530 1722 c0 -11 -4 -24 -10 -27 -12 -8 -13 -35 -1 -35 10 0 25 69
17 78 -3 3 -6 -4 -6 -16z"/>
<path d="M1540 1678 c0 -5 30 -7 68 -7 69 2 62 6 -20 11 -27 2 -48 0 -48 -4z"/>
<path d="M1823 1683 c-15 -5 -17 -23 -4 -23 5 0 11 7 15 15 3 8 4 15 3 14 -1
0 -8 -3 -14 -6z"/>
<path d="M1915 1670 c-10 -11 -14 -20 -9 -20 5 0 15 9 22 20 7 11 11 20 9 20
-2 0 -12 -9 -22 -20z"/>
<path d="M2869 1690 c0 -3 -2 -44 -4 -92 -5 -101 -24 -184 -54 -231 -11 -17
-21 -27 -21 -21 0 6 3 14 7 18 10 9 32 113 32 146 0 14 -11 -12 -23 -56 -24
-82 -84 -214 -98 -214 -5 0 -8 -6 -8 -14 0 -16 -18 -31 -26 -23 -3 3 2 19 10
36 9 16 16 38 16 48 0 10 -19 -17 -41 -59 -54 -102 -126 -172 -199 -193 -19
-6 -11 6 35 49 l60 57 -53 -35 c-29 -19 -61 -38 -72 -41 -11 -4 -18 -10 -15
-15 3 -5 -3 -18 -14 -29 -11 -11 -16 -21 -10 -23 8 -3 -30 -107 -66 -179 -37
-73 -95 -136 -171 -189 -44 -29 -87 -62 -97 -72 -10 -10 -22 -16 -27 -13 -15
10 -52 -15 -46 -31 3 -8 -10 -29 -31 -49 -34 -33 -62 -47 -48 -25 13 20 -7 9
-38 -21 -26 -27 -36 -30 -69 -26 -36 5 -50 -4 -28 -18 25 -15 5 -25 -51 -25
-37 0 -58 4 -54 10 3 6 -2 10 -12 11 -12 0 -10 3 8 9 14 4 43 19 65 33 42 28
162 69 176 61 4 -3 8 0 8 6 0 7 6 10 14 7 7 -3 19 0 25 6 22 22 10 26 -31 8
-82 -35 -237 -73 -265 -66 -46 11 -154 76 -238 144 -44 35 -66 49 -50 31 17
-18 52 -50 78 -71 l49 -39 -41 0 c-23 0 -41 4 -41 10 0 5 -7 6 -17 3 -9 -4
-14 -2 -11 3 4 5 -5 10 -18 10 -33 2 -51 19 -78 73 -46 90 -44 102 11 80 15
-7 46 -13 68 -15 l40 -3 -39 10 c-21 5 -61 21 -89 34 -27 14 -52 24 -54 21 -9
-8 61 -157 85 -181 14 -14 42 -30 63 -36 21 -7 37 -15 34 -18 -6 -11 42 -11
69 -1 35 13 41 -3 13 -37 -13 -15 -40 -53 -60 -83 -20 -30 -46 -68 -59 -85
-14 -19 -16 -25 -5 -16 29 23 20 -5 -14 -44 -28 -31 -76 -65 -94 -65 -3 0 -5
19 -5 43 0 32 -8 56 -31 90 -41 63 -46 59 -9 -6 30 -54 38 -83 20 -72 -5 3
-10 15 -10 26 0 15 -7 19 -34 19 -45 0 -154 -63 -152 -87 1 -19 -77 -66 -177
-105 -32 -13 -70 -33 -85 -45 l-27 -22 79 -1 c70 0 83 3 113 26 19 14 58 34
86 44 l52 19 28 -27 28 -27 -21 -17 c-21 -17 -13 -18 190 -17 233 0 233 0 145
56 -40 25 -43 30 -47 81 -3 37 -10 57 -22 64 -15 8 -15 12 6 41 13 18 33 54
46 81 21 45 24 48 51 43 16 -4 42 -18 56 -33 l28 -28 -6 -120 c-3 -67 -10
-134 -16 -150 -7 -16 -9 -31 -7 -34 12 -11 28 59 33 146 3 50 8 92 10 92 2 0
13 -8 24 -18 20 -19 42 -89 54 -174 l7 -48 50 0 50 0 -6 33 c-16 91 -18 117
-8 117 16 0 22 -26 22 -91 0 -47 3 -59 16 -59 13 0 15 10 12 55 -3 63 9 71 56
34 14 -11 26 -16 26 -10 0 13 -35 36 -70 46 -13 4 -30 14 -38 21 -7 8 -20 14
-28 14 -8 0 -17 13 -21 31 -3 17 -14 36 -24 42 -11 7 -19 14 -19 18 0 3 22 16
50 29 27 13 48 25 46 28 -2 2 -13 -1 -24 -7 -16 -8 -21 -7 -26 5 -4 9 3 18 17
23 39 15 61 15 99 -3 49 -21 72 -20 30 2 -18 10 -30 21 -26 25 4 4 -4 7 -17 8
-14 1 -4 6 26 14 53 13 149 58 160 74 3 6 -15 -2 -40 -16 -25 -14 -48 -23 -50
-21 -3 2 15 24 40 48 42 41 45 42 82 33 21 -6 46 -14 56 -18 9 -4 17 -3 17 2
0 12 -48 36 -75 37 -11 1 -21 5 -23 11 -1 5 22 9 50 10 94 1 223 88 267 178
11 23 29 48 40 54 26 16 46 59 46 98 0 20 11 41 34 64 18 20 28 37 22 39 -6 2
3 15 20 29 16 14 32 23 35 21 2 -3 -7 -13 -22 -22 -30 -20 -26 -33 5 -16 20
10 21 8 20 -32 0 -24 -7 -61 -14 -83 l-14 -40 4 55 c7 73 -10 35 -20 -46 -4
-32 -12 -70 -17 -84 l-8 -25 19 24 c10 14 33 61 51 107 27 69 37 103 53 169 5
22 19 35 29 29 6 -4 9 -3 6 2 -3 5 5 17 18 27 l23 18 -4 -38 c-3 -21 -9 -76
-15 -122 -11 -93 -52 -195 -98 -245 -22 -23 -23 -27 -6 -18 11 6 36 39 54 74
18 35 38 70 45 78 7 8 24 51 38 95 23 73 26 77 32 50 10 -45 47 -166 51 -163
1 2 -2 53 -7 113 l-9 110 39 35 c47 42 155 194 182 255 36 82 67 307 38 278
-5 -5 -11 -24 -11 -41 -1 -45 -16 -29 -23 26 -11 80 -19 93 -26 42 -5 -38 -7
-42 -14 -22 -5 15 -10 20 -15 12 -4 -7 -15 5 -29 32 -11 24 -21 41 -22 38z
m-9 -440 c-27 -83 -82 -190 -98 -190 -3 0 -2 36 1 81 6 71 13 93 64 197 l58
117 3 -55 c2 -41 -5 -81 -28 -150z m-89 17 c-11 -17 -21 -27 -21 -22 0 6 7 21
16 33 8 12 12 22 9 22 -3 0 -3 5 1 12 6 9 9 9 12 0 2 -7 -6 -27 -17 -45z
m-137 -144 c-20 -31 -61 -76 -49 -53 11 20 59 80 64 80 2 0 -5 -12 -15 -27z
m60 -50 c-7 -63 -14 -68 -14 -11 0 39 5 58 16 58 2 0 1 -21 -2 -47z m-1086
-633 c50 -22 73 -48 32 -37 -10 3 -21 0 -23 -6 -2 -6 -11 -8 -21 -4 -10 4 -14
12 -10 19 5 8 2 9 -12 4 -31 -13 -94 -19 -94 -10 0 14 54 65 65 60 5 -2 34
-14 63 -26z m-28 -61 c0 -5 -12 -9 -27 -9 -26 0 -26 1 -8 14 20 14 35 12 35
-5z m-370 -153 c5 -13 14 -27 19 -31 16 -9 14 -55 -2 -55 -25 0 -45 25 -51 68
-5 34 -3 42 9 42 9 0 20 -11 25 -24z m160 -43 c0 -5 -14 -22 -30 -40 -26 -29
-31 -31 -54 -20 -33 15 -32 21 2 38 50 25 82 33 82 22z m-255 -37 c19 -8 35
-17 35 -19 0 -2 -25 1 -55 6 -35 7 -51 13 -43 19 18 11 24 10 63 -6z m235 -56
c18 -12 2 -12 -25 0 -13 6 -15 9 -5 9 8 0 22 -4 30 -9z"/>
<path d="M1720 1671 c0 -5 9 -7 20 -4 11 3 20 7 20 9 0 2 -9 4 -20 4 -11 0
-20 -4 -20 -9z"/>
<path d="M2224 1658 l-19 -23 23 19 c21 18 27 26 19 26 -2 0 -12 -10 -23 -22z"/>
<path d="M1105 1659 c-4 -6 -5 -12 -2 -15 2 -3 7 2 10 11 7 17 1 20 -8 4z"/>
<path d="M2027 1630 c-8 -22 -13 -40 -11 -40 7 0 36 71 31 76 -2 2 -11 -14
-20 -36z"/>
<path d="M1081 1607 c-13 -21 -12 -21 5 -5 10 10 16 20 13 22 -3 3 -11 -5 -18
-17z"/>
<path d="M419 1589 l-24 -21 25 16 c13 9 39 16 57 16 l33 0 0 -52 c0 -43 -7
-64 -40 -118 -54 -92 -80 -163 -83 -224 -2 -42 -5 -52 -20 -52 -10 0 -15 6
-12 14 2 7 1 10 -5 7 -16 -10 -33 38 -41 120 -9 99 10 188 47 217 13 11 24 23
24 28 0 5 -11 -2 -25 -15 -13 -14 -29 -25 -35 -25 -5 0 -9 -3 -8 -8 5 -13 -47
-222 -54 -222 -5 0 -8 15 -8 34 0 46 -25 55 -45 15 -9 -16 -18 -58 -22 -93
l-6 -64 56 -36 c37 -23 59 -44 63 -61 7 -30 -11 -56 -33 -48 -12 5 -14 1 -9
-15 7 -22 11 -22 -84 -9 -37 5 -33 3 20 -12 60 -17 67 -17 94 -2 22 12 30 13
33 4 3 -9 30 -13 89 -13 70 0 82 2 78 15 -4 8 -1 15 6 15 10 0 10 3 0 15 -19
23 -31 18 -24 -10 6 -25 6 -25 -62 -24 -54 0 -64 2 -46 10 43 17 72 45 60 57
-20 20 1 26 22 7 17 -16 17 -13 -5 32 -56 117 -47 161 80 398 26 50 52 89 57
87 5 -1 7 2 3 8 -11 17 -24 11 -39 -17 l-15 -28 -1 28 c0 15 5 27 13 27 8 0 7
4 -3 10 -27 17 -86 11 -111 -11z m-122 -261 c-3 -8 -6 -5 -6 6 -1 11 2 17 5
13 3 -3 4 -12 1 -19z m-10 -60 c-3 -7 -5 -2 -5 12 0 14 2 19 5 13 2 -7 2 -19
0 -25z m77 -158 c7 -12 6 -13 -5 -2 -20 18 -33 15 -18 -5 13 -16 12 -17 -4 -4
-9 8 -15 16 -13 19 3 2 -1 17 -9 33 -8 15 -15 36 -15 45 0 15 30 -25 64 -86z
m-77 68 c-3 -8 -6 -5 -6 6 -1 11 2 17 5 13 3 -3 4 -12 1 -19z"/>
<path d="M1000 1560 c-26 -16 -70 -34 -100 -40 -29 -6 -56 -13 -59 -16 -3 -3
10 -3 30 1 55 10 65 -8 50 -98 -6 -39 -13 -109 -14 -154 -2 -45 -6 -85 -10
-89 -4 -4 -18 3 -32 16 -30 28 -31 17 -5 -57 11 -32 20 -64 20 -73 0 -8 8 -24
16 -35 12 -15 18 -17 21 -6 3 7 14 -13 25 -45 27 -82 37 -87 22 -12 -8 35 -14
101 -15 148 -1 61 -4 76 -9 55 -6 -23 -8 -15 -9 38 0 37 3 67 7 67 5 0 14 44
22 98 7 53 17 109 21 125 5 16 4 25 -2 22 -5 -4 -9 -3 -9 2 0 17 18 35 56 58
21 14 35 24 29 25 -5 0 -30 -14 -55 -30z"/>
<path d="M2526 1563 c-3 -10 -5 -22 -5 -27 0 -5 -3 -12 -8 -15 -4 -3 -5 -26
-2 -51 5 -37 6 -39 7 -12 2 34 10 39 32 20 8 -7 6 -3 -4 9 -14 17 -17 32 -13
58 6 37 2 47 -7 18z"/>
<path d="M598 1557 c8 -9 6 -30 -8 -76 -11 -34 -20 -70 -19 -79 0 -10 5 -1 10
18 24 86 42 121 58 114 25 -10 57 -17 51 -12 -12 13 -101 47 -92 35z"/>
<path d="M2199 1513 c-49 -69 -54 -77 -39 -68 10 6 12 3 7 -11 -14 -39 30 28
51 77 11 27 19 49 18 49 -1 0 -18 -21 -37 -47z"/>
<path d="M1954 1488 c-16 -33 -16 -33 3 -13 11 11 20 26 20 33 0 19 -5 15 -23
-20z"/>
<path d="M726 1466 c-3 -22 -7 -69 -7 -103 -2 -46 -7 -67 -20 -79 -16 -14 -18
-14 -29 3 -24 37 0 -41 32 -105 45 -91 57 -96 45 -19 -11 78 -13 274 -3 305 6
18 15 22 48 22 53 0 46 6 -14 12 l-46 5 -6 -41z"/>
<path d="M280 1480 c-9 -6 -10 -10 -3 -10 6 0 15 5 18 10 8 12 4 12 -15 0z"/>
<path d="M1133 1425 c0 -27 2 -38 4 -22 2 15 2 37 0 50 -2 12 -4 0 -4 -28z"/>
<path d="M1910 1418 c-15 -21 -17 -28 -6 -19 16 13 41 51 33 51 -2 0 -14 -15
-27 -32z"/>
<path d="M2629 1384 c-37 -74 -105 -157 -123 -151 -6 3 -25 -6 -41 -19 -28
-23 -29 -24 -7 -24 27 0 27 -1 1 -51 -11 -22 -19 -45 -17 -51 5 -15 85 86 115
147 33 64 64 106 75 99 4 -3 8 3 8 13 1 10 7 36 15 58 22 61 11 52 -26 -21z
m-114 -194 c-9 -16 -18 -30 -21 -30 -2 0 2 14 11 30 9 17 18 30 21 30 2 0 -2
-13 -11 -30z"/>
<path d="M152 1329 c-85 -118 -77 -123 10 -5 33 44 65 84 70 87 6 4 7 9 1 12
-6 4 -42 -39 -81 -94z"/>
<path d="M781 1394 c0 -11 3 -14 6 -6 3 7 2 16 -1 19 -3 4 -6 -2 -5 -13z"/>
<path d="M2025 1360 c-27 -17 -46 -30 -42 -30 13 0 85 39 92 50 8 14 7 13 -50
-20z"/>
<path d="M539 1282 l-23 -100 -22 16 c-13 10 -24 24 -24 32 -1 13 -2 13 -9 0
-24 -41 32 -190 84 -224 29 -19 29 -20 10 34 -19 55 -19 146 1 250 22 117 10
111 -17 -8z"/>
<path d="M31 1172 c-17 -22 -31 -46 -31 -52 0 -7 16 8 36 34 44 57 39 73 -5
18z"/>
<path d="M2264 1190 c-95 -8 -170 -34 -177 -61 -3 -10 -4 -19 -4 -19 1 0 38 7
82 15 97 19 152 8 190 -37 l25 -30 9 24 c10 26 0 50 -29 71 -13 9 -18 20 -14
31 3 9 5 15 3 15 -2 -1 -40 -5 -85 -9z"/>
<path d="M631 1094 c-1 -6 4 -37 10 -69 6 -32 8 -74 4 -92 l-6 -34 -21 26
c-19 24 -107 77 -94 57 3 -6 0 -13 -6 -15 -7 -3 0 -6 16 -6 31 -1 96 -58 96
-85 0 -21 16 -21 24 0 10 27 5 147 -9 189 -7 22 -13 35 -14 29z"/>
<path d="M1196 1070 c3 -19 17 -57 30 -85 13 -27 22 -41 18 -30 -3 11 -9 40
-14 64 -4 24 -12 46 -17 50 -6 3 -13 13 -16 21 -4 8 -4 -1 -1 -20z"/>
<path d="M782 1013 c22 -63 18 -155 -9 -206 -8 -16 -12 -31 -9 -35 6 -5 -9
-15 -72 -48 -21 -12 -28 -20 -20 -25 17 -11 -5 -170 -41 -289 -64 -210 -73
-247 -86 -375 -3 -28 -2 -34 4 -20 5 11 12 49 16 85 4 35 23 119 42 185 20 66
38 130 40 143 9 37 20 35 52 -12 30 -44 38 -62 24 -53 -5 3 -9 -18 -10 -47
l-2 -51 15 34 c8 18 14 43 14 55 0 11 12 57 26 101 14 44 23 90 21 103 -5 24
11 29 44 12 13 -8 19 -7 19 0 0 8 11 9 31 5 24 -6 30 -4 24 6 -6 9 -4 11 8 6
11 -4 25 5 43 26 l27 32 -5 -30 c-5 -24 -4 -27 5 -14 9 15 14 12 39 -22 16
-22 40 -45 54 -51 13 -6 27 -23 31 -37 6 -28 51 -121 57 -121 3 0 -7 34 -21
76 -18 55 -22 78 -14 83 8 5 5 13 -10 27 -12 10 -32 41 -46 68 -21 41 -23 53
-13 69 7 12 7 17 1 12 -6 -3 -11 -2 -11 4 0 5 -14 30 -30 55 -17 25 -46 78
-66 118 -31 66 -34 69 -28 33 3 -22 10 -53 15 -70 4 -16 13 -65 19 -107 13
-87 6 -109 -38 -131 -67 -34 -140 -26 -110 11 11 13 11 14 0 8 -24 -14 -62 2
-61 27 0 12 3 16 6 10 14 -35 88 12 129 83 28 48 28 50 0 56 -14 2 -19 -4 -21
-24 -2 -15 -8 -35 -13 -44 -9 -16 -10 -15 -16 4 -4 12 -5 26 -2 30 3 5 2 22
-3 38 l-8 29 -13 -37 c-8 -21 -17 -38 -21 -38 -19 0 -17 21 7 55 22 33 25 45
19 89 -8 63 -32 153 -43 160 -5 3 0 -20 10 -51z m304 -470 c-7 -7 -26 7 -26
19 0 6 6 6 15 -2 9 -7 13 -15 11 -17z"/>
<path d="M7 1013 c7 -2 19 -2 26 0 6 3 1 5 -13 5 -14 0 -19 -2 -13 -5z"/>
<path d="M88 1003 c6 -2 18 -2 25 0 6 3 1 5 -13 5 -14 0 -19 -2 -12 -5z"/>
<path d="M1266 902 c10 -18 30 -43 43 -55 18 -16 16 -10 -9 23 -46 61 -56 71
-34 32z"/>
<path d="M2451 894 c0 -11 3 -14 6 -6 3 7 2 16 -1 19 -3 4 -6 -2 -5 -13z"/>
<path d="M1674 875 c-12 -10 -13 -13 -3 -10 24 9 82 -21 110 -57 35 -45 69
-112 69 -138 0 -11 5 -20 10 -20 14 0 70 89 70 112 0 19 -92 86 -154 112 -48
20 -77 20 -102 1z"/>
<path d="M675 834 c-8 -20 -15 -38 -15 -41 0 -2 -12 -20 -26 -39 l-26 -34 23
0 c35 0 86 34 104 70 16 30 16 31 -4 21 -35 -19 -44 -14 -38 24 7 45 1 44 -18
-1z"/>
<path d="M2441 854 c0 -11 3 -14 6 -6 3 7 2 16 -1 19 -3 4 -6 -2 -5 -13z"/>
<path d="M1290 806 c0 -3 9 -10 20 -16 11 -6 20 -8 20 -6 0 3 -9 10 -20 16
-11 6 -20 8 -20 6z"/>
<path d="M2431 794 c0 -11 3 -14 6 -6 3 7 2 16 -1 19 -3 4 -6 -2 -5 -13z"/>
<path d="M2421 754 c0 -11 3 -14 6 -6 3 7 2 16 -1 19 -3 4 -6 -2 -5 -13z"/>
<path d="M2471 661 c-13 -10 -19 -21 -14 -24 6 -4 21 5 33 18 27 29 16 33 -19
6z"/>
<path d="M2760 654 c0 -16 -9 -48 -19 -71 -11 -23 -31 -80 -45 -127 -15 -47
-28 -86 -30 -86 -2 0 -1 30 1 68 7 85 -2 77 -22 -19 -18 -87 -38 -137 -79
-199 -41 -61 -72 -88 -131 -116 -27 -13 -44 -24 -37 -24 22 0 106 47 132 75
13 14 43 34 65 44 105 46 175 195 175 373 0 44 4 67 10 63 15 -9 12 7 -5 29
-14 19 -15 18 -15 -10z"/>
<path d="M2439 611 c20 -13 -15 -66 -84 -130 -67 -61 -130 -79 -183 -54 -18 9
-36 13 -39 9 -3 -3 -1 -6 5 -6 21 0 13 -23 -19 -56 -20 -20 -37 -30 -47 -26
-11 4 -14 1 -9 -11 7 -19 -17 -41 -38 -33 -8 3 -15 1 -15 -5 0 -6 -9 -8 -20
-4 -11 4 -20 2 -20 -4 0 -29 -116 -3 -153 33 -9 10 -17 13 -17 7 0 -20 90 -63
138 -66 38 -3 52 -9 74 -35 16 -17 33 -28 40 -24 7 4 8 3 4 -5 -9 -15 51 -41
95 -41 42 0 110 21 103 31 -3 5 7 9 21 9 14 0 31 5 38 10 38 32 116 78 121 72
4 -3 4 1 0 11 -4 12 -1 17 10 17 13 0 63 77 54 84 -7 6 -84 -84 -79 -91 3 -4
-2 -1 -11 6 -13 10 -18 10 -18 2 0 -7 -4 -10 -9 -6 -10 6 -37 -34 -33 -48 4
-14 -90 -48 -112 -41 -19 6 -17 8 14 20 45 16 31 16 -50 -1 -43 -9 -55 -13
-34 -14 17 -1 37 -7 43 -15 9 -10 7 -13 -6 -13 -10 1 -37 -2 -60 -7 -26 -5
-49 -4 -60 3 -15 9 -13 11 17 12 27 1 30 3 10 6 -20 4 -12 11 54 44 79 39 79
39 40 40 -21 0 -55 7 -74 14 l-35 13 47 1 c26 1 50 5 53 11 3 6 15 10 26 10
30 0 91 35 124 71 l30 33 -33 -27 c-19 -15 -40 -27 -48 -27 -23 0 1 37 35 55
34 17 87 77 119 134 l23 41 -23 0 c-17 0 -19 -3 -9 -9z m-249 -205 c0 -2 -7
-6 -15 -10 -8 -3 -15 -1 -15 4 0 6 7 10 15 10 8 0 15 -2 15 -4z m51 -26 c-38
-33 -72 -46 -98 -36 -14 6 -11 11 18 28 30 19 74 34 104 37 6 0 -5 -13 -24
-29z m-72 -100 c12 -6 5 -13 -29 -26 -52 -21 -67 -20 -95 7 -17 17 -18 21 -5
30 16 11 104 3 129 -11z"/>
<path d="M2556 605 c-3 -9 -6 -26 -5 -38 1 -16 4 -12 10 12 10 34 6 55 -5 26z"/>
<path d="M1177 586 c5 -15 3 -17 -8 -11 -8 5 -5 -2 6 -14 21 -25 55 -44 95
-56 16 -4 9 4 -20 22 -25 16 -53 40 -62 54 -13 17 -16 19 -11 5z"/>
<path d="M2322 550 c-24 -21 -62 -46 -85 -54 -41 -16 -41 -16 -7 -10 82 13 88
17 119 70 11 19 19 34 18 34 -1 -1 -21 -18 -45 -40z"/>
<path d="M910 555 c-25 -10 -29 -14 -14 -14 11 -1 29 6 40 14 23 17 19 17 -26
0z"/>
<path d="M1150 516 c0 -2 7 -7 16 -10 8 -3 12 -2 9 4 -6 10 -25 14 -25 6z"/>
<path d="M1332 480 c10 -6 25 -7 40 -1 20 9 18 10 -17 10 -31 0 -36 -2 -23 -9z"/>
<path d="M2148 464 c12 -8 30 -13 40 -11 12 3 11 5 -6 6 -13 0 -20 6 -17 11 3
6 -4 10 -17 10 l-22 0 22 -16z"/>
<path d="M2489 293 l-24 -28 28 24 c15 14 27 26 27 28 0 8 -8 1 -31 -24z"/>
<path d="M671 166 c-17 -53 -30 -113 -30 -134 1 -33 2 -31 10 16 5 30 20 88
34 129 14 42 24 78 21 80 -2 3 -18 -38 -35 -91z"/>
<path d="M2392 233 c-24 -9 -41 -17 -38 -20 7 -7 74 16 81 28 4 5 5 8 3 8 -2
-1 -22 -8 -46 -16z"/>
<path d="M38 223 c7 -3 16 -2 19 1 4 3 -2 6 -13 5 -11 0 -14 -3 -6 -6z"/>
<path d="M79 211 c9 -6 15 -34 17 -86 2 -43 5 -80 8 -83 3 -2 4 36 3 87 -2 84
-4 91 -22 91 -15 0 -17 -2 -6 -9z"/>
<path d="M2331 170 c-26 -23 -61 -26 -79 -8 -9 9 -12 8 -12 -6 0 -15 -5 -17
-31 -12 -27 5 -30 4 -19 -8 15 -19 75 -39 97 -33 13 3 10 5 -7 6 -14 1 -32 6
-40 11 -12 8 -9 10 13 10 32 0 77 21 96 44 18 21 11 20 -18 -4z"/>
<path d="M1578 60 c-3 -19 -1 -29 6 -27 15 5 20 37 8 49 -6 6 -11 -1 -14 -22z"/>
<path d="M2328 73 c12 -2 30 -2 40 0 9 3 -1 5 -23 4 -22 0 -30 -2 -17 -4z"/>
<path d="M2605 70 c-3 -6 1 -7 9 -4 18 7 21 14 7 14 -6 0 -13 -4 -16 -10z"/>
<path d="M1882 35 c0 -17 2 -22 5 -12 2 9 2 23 0 30 -3 6 -5 -1 -5 -18z"/>
<path d="M2678 53 c7 -3 16 -2 19 1 4 3 -2 6 -13 5 -11 0 -14 -3 -6 -6z"/>
</g>
</svg>
